<svg width="16" height="16" viewBox="0 0 16 16" fill="none" xmlns="http://www.w3.org/2000/svg">
<path d="M10.467 11.749V7.892C10.467 7.472 10.4273 7.087 10.348 6.737C10.2687 6.38233 10.1403 6.07433 9.963 5.813C9.79033 5.547 9.564 5.34167 9.284 5.197C9.00867 5.05233 8.67267 4.98 8.276 4.98C7.912 4.98 7.59 5.043 7.31 5.169C7.03467 5.295 6.80133 5.477 6.61 5.715C6.42333 5.94833 6.281 6.233 6.183 6.569C6.085 6.905 6.036 7.28767 6.036 7.717L5.308 7.556C5.308 6.78133 5.44333 6.13033 5.714 5.603C5.98467 5.07567 6.358 4.67667 6.834 4.406C7.31 4.13533 7.856 4 8.472 4C8.92467 4 9.319 4.07 9.655 4.21C9.99567 4.35 10.2827 4.539 10.516 4.777C10.754 5.015 10.9453 5.288 11.09 5.596C11.2347 5.89933 11.3397 6.22367 11.405 6.569C11.4703 6.90967 11.503 7.25033 11.503 7.591V11.749H10.467ZM5 11.749V4.189H5.931V6.051H6.036V11.749H5Z" fill="white"/>
</svg>